<?xml version="1.0" standalone="no"?>
<!DOCTYPE svg PUBLIC "-//W3C//DTD SVG 20010904//EN"
 "http://www.w3.org/TR/2001/REC-SVG-20010904/DTD/svg10.dtd">
<svg version="1.0" xmlns="http://www.w3.org/2000/svg"
 width="1024.000000pt" height="1024.000000pt" viewBox="0 0 1024.000000 1024.000000"
 preserveAspectRatio="xMidYMid meet">

<g transform="translate(0.000000,1024.000000) scale(0.100000,-0.100000)"
fill="#000000" stroke="none">
<path d="M3148 9224 c-350 -94 -609 -350 -728 -719 -18 -55 -35 -106 -39 -114
-4 -7 -63 -32 -131 -56 -230 -77 -514 -200 -745 -321 -66 -35 -149 -78 -184
-96 l-63 -33 5 -115 c13 -255 58 -757 98 -1080 86 -697 223 -1285 434 -1866
210 -580 435 -1021 798 -1563 448 -671 1068 -1291 1817 -1818 250 -176 658
-433 687 -433 29 0 439 265 691 447 733 528 1347 1175 1808 1903 671 1060
1059 2179 1253 3615 28 206 82 672 97 830 l6 71 -183 88 c-917 441 -1903 718
-2869 805 -457 42 -1088 42 -1553 0 l-128 -12 -17 24 c-32 48 -169 182 -227
224 -136 97 -282 145 -439 146 -95 1 -103 3 -145 32 -41 28 -132 68 -149 66
-4 -1 -46 -12 -94 -25z m124 -223 c22 -24 28 -41 28 -75 l0 -44 78 39 c139 70
259 70 402 2 59 -28 94 -56 170 -132 103 -102 263 -296 374 -450 61 -85 64
-92 34 -72 -18 12 -87 52 -152 89 -89 50 -142 89 -208 150 -48 46 -97 99 -108
117 -11 18 -55 64 -97 101 l-77 69 -90 1 c-128 2 -236 -24 -325 -79 l-33 -20
93 -33 c51 -18 123 -52 161 -74 37 -22 100 -59 138 -82 49 -28 86 -42 120 -46
49 -4 50 -4 50 22 0 15 -7 43 -15 63 l-15 36 22 -19 22 -19 -18 28 c-32 52
-12 37 40 -29 111 -140 684 -726 856 -876 172 -149 379 -273 547 -328 269 -87
438 -76 691 47 104 50 123 56 196 61 124 7 306 -31 384 -81 l35 -22 -96 -6
c-52 -4 -106 -10 -120 -14 -23 -8 -23 -8 -4 -17 21 -9 23 -9 -65 6 l-35 6 25
-17 c59 -43 161 -136 211 -194 80 -93 122 -149 116 -155 -3 -3 -56 15 -119 40
-62 24 -126 48 -142 52 l-28 7 30 -41 c16 -23 35 -56 42 -74 7 -18 20 -41 29
-52 9 -10 -27 9 -79 43 -177 115 -395 204 -655 265 -83 19 -186 44 -230 54
-44 10 -89 22 -100 26 -11 4 0 -11 25 -34 41 -38 42 -40 13 -26 -18 9 -43 16
-56 16 -32 0 -248 60 -377 105 -162 56 -352 162 -485 269 -27 22 -158 146
-290 277 -323 318 -499 455 -735 574 -275 138 -527 181 -738 128 -24 -6 -22
-2 21 54 78 102 186 195 279 241 46 22 97 43 113 46 30 5 31 4 42 -57 10 -50
19 -68 47 -94 44 -41 65 -41 122 -2 24 16 75 44 112 62 58 27 78 32 147 32 67
0 92 -6 156 -32 95 -39 230 -122 288 -177 24 -22 38 -31 30 -19 -40 60 -221
174 -346 218 -126 44 -229 27 -367 -59 -40 -25 -81 -46 -89 -46 -35 0 -75 49
-87 106 -7 30 -9 62 -6 70 8 20 -23 18 -96 -7 -115 -38 -234 -128 -330 -248
-70 -88 -128 -145 -128 -128 0 30 97 202 148 263 112 133 309 239 426 230 41
-3 55 -9 78 -35z m1326 -568 c185 -97 342 -135 562 -135 119 -1 169 4 280 27
162 32 397 44 536 26 270 -36 495 -121 833 -315 197 -114 388 -207 588 -287
98 -39 180 -73 182 -75 2 -2 -18 -4 -45 -3 -37 0 -44 3 -29 9 11 5 18 9 15 9
-3 1 -30 10 -60 21 -106 39 -197 60 -345 80 -287 38 -601 94 -618 110 -5 4 10
11 32 15 23 4 41 10 41 14 0 8 -265 130 -355 165 -65 25 -162 47 -253 57 -147
17 -267 -5 -602 -107 -205 -62 -336 -39 -535 96 -78 53 -235 187 -235 201 0 5
27 -9 61 -31 69 -44 227 -108 339 -136 117 -30 345 -25 515 10 164 34 291 42
425 27 234 -27 412 -82 654 -203 76 -38 140 -68 142 -65 5 5 -300 152 -386
185 -171 67 -435 109 -610 99 -52 -3 -156 -18 -230 -32 -164 -32 -339 -42
-435 -26 -138 24 -341 101 -426 162 -16 11 -37 22 -45 23 -16 2 -234 215 -234
228 0 4 32 -16 71 -45 39 -30 114 -76 167 -104z m-847 -270 c13 -16 12 -17 -3
-4 -10 7 -18 15 -18 17 0 8 8 3 21 -13z m570 -10 c13 -16 12 -17 -3 -4 -10 7
-18 15 -18 17 0 8 8 3 21 -13z m-1415 -56 c16 -8 46 -33 68 -55 l38 -40 -32
-46 c-78 -114 -120 -270 -120 -447 0 -113 21 -257 45 -316 26 -63 9 -47 -40
37 -129 220 -187 476 -156 689 13 88 23 119 54 164 33 48 71 52 143 14z m715
-16 c24 -16 64 -46 87 -68 l44 -38 -41 -67 c-103 -170 -144 -338 -145 -605 -1
-101 -2 -183 -3 -183 -6 0 -66 203 -82 280 -73 352 -40 710 67 710 15 0 48
-13 73 -29z m259 -26 c13 -14 21 -25 18 -25 -2 0 -15 11 -28 25 -13 14 -21 25
-18 25 2 0 15 -11 28 -25z m591 -52 c13 -16 12 -17 -3 -4 -17 13 -22 21 -14
21 2 0 10 -8 17 -17z m1350 -65 c14 -28 24 -68 27 -113 3 -63 1 -76 -25 -125
-88 -166 -337 -212 -522 -96 -52 33 -97 95 -116 159 -20 67 -20 67 18 67 17 1
61 7 97 15 83 18 80 19 80 -6 0 -11 14 -56 32 -101 29 -72 33 -78 45 -62 17
24 63 168 63 198 0 20 8 26 63 39 34 9 94 27 132 41 39 13 73 25 77 25 4 1 17
-18 29 -41z m1831 -42 c227 -83 717 -291 741 -315 14 -14 -59 -567 -132 -996
-35 -202 -89 -472 -150 -745 -20 -93 -19 -94 -46 45 -31 158 -113 460 -153
564 -6 17 36 10 125 -19 32 -10 60 -17 62 -14 11 11 -159 365 -262 544 -69
120 -222 351 -283 426 l-41 50 123 13 c165 16 444 70 467 91 9 8 -246 191
-423 304 -69 43 -127 81 -129 83 -11 8 15 0 101 -31z m-3612 -1 c13 -14 21
-25 18 -25 -2 0 -15 11 -28 25 -13 14 -21 25 -18 25 2 0 15 -11 28 -25z
m-1461 -362 c40 -184 117 -321 260 -464 70 -70 231 -203 237 -196 1 1 -7 43
-17 92 -43 211 -49 514 -14 680 9 39 18 85 22 103 l6 33 66 -63 c36 -35 90
-84 118 -108 l52 -45 16 -108 c26 -177 89 -335 186 -464 38 -51 200 -216 206
-210 1 2 -2 41 -7 88 -5 46 -10 138 -10 204 l0 120 51 -90 c173 -305 224 -469
236 -760 6 -146 -8 -281 -30 -301 -23 -21 -186 -84 -279 -109 -148 -38 -244
-48 -421 -42 -282 8 -455 55 -906 245 -22 9 69 -106 125 -158 92 -86 297 -206
382 -225 17 -3 32 -10 32 -14 0 -3 -33 -13 -72 -20 -206 -38 -412 -135 -553
-263 l-49 -45 199 -6 c197 -6 290 -18 515 -66 211 -44 436 -50 638 -15 107 18
281 65 362 98 71 29 70 29 34 -80 -38 -114 -89 -220 -125 -262 -41 -46 -86
-142 -101 -214 -7 -32 -15 -58 -19 -58 -26 0 -179 273 -179 320 0 60 -23 31
-62 -80 -28 -82 -38 -182 -28 -295 5 -55 7 -102 5 -104 -3 -2 -33 4 -69 13
-36 9 -68 16 -71 16 -10 0 -5 -113 10 -184 27 -130 83 -251 154 -330 71 -79
76 -64 -61 -172 -68 -54 -195 -162 -283 -240 l-161 -141 -31 46 c-255 374
-514 905 -687 1409 -167 489 -293 1035 -366 1592 -50 389 -98 907 -84 919 15
14 299 135 504 215 107 43 204 81 215 85 19 8 20 3 27 -123 3 -72 15 -173 27
-223z m1782 40 c13 -16 12 -17 -3 -4 -10 7 -18 15 -18 17 0 8 8 3 21 -13z
m2000 -907 c62 -19 116 -48 159 -84 l34 -29 -32 -66 c-40 -80 -188 -240 -304
-327 -43 -33 -83 -60 -87 -60 -4 0 -2 30 5 68 22 112 21 113 -53 36 -38 -38
-140 -133 -228 -211 -185 -164 -357 -330 -509 -492 l-107 -115 42 70 c24 38
96 173 162 299 131 253 192 360 275 479 169 242 365 369 610 395 66 7 70 9 27
9 -116 3 -277 -52 -391 -133 -176 -126 -289 -283 -514 -715 -192 -369 -266
-485 -474 -742 -48 -61 -83 -107 -77 -104 13 9 -119 -187 -202 -299 -76 -102
-234 -263 -314 -321 -129 -93 -245 -129 -392 -121 -106 5 -157 20 -279 80
-101 50 -146 87 -172 138 -30 58 -24 65 21 24 85 -76 272 -145 394 -144 189 0
399 91 560 241 146 137 416 511 579 803 75 133 197 380 275 553 50 114 135
272 196 367 138 215 335 373 514 411 78 16 215 11 282 -10z m-604 -1732 c-3
-3 -12 -4 -19 -1 -8 3 -5 6 6 6 11 1 17 -2 13 -5z m-307 -7 c0 -2 -12 -14 -27
-28 l-28 -24 24 28 c23 25 31 32 31 24z m-1431 -201 c58 -74 118 -130 184
-169 l57 -35 -62 -21 c-71 -24 -164 -37 -201 -27 -19 4 -34 23 -59 73 -32 65
-33 73 -33 183 0 63 4 124 8 135 7 17 12 12 38 -34 16 -30 47 -77 68 -105z
m-384 -4 c65 -98 142 -186 189 -216 26 -16 45 -31 43 -32 -2 -2 -30 1 -62 6
-79 13 -162 55 -186 93 -25 42 -49 153 -49 224 l1 58 14 -38 c7 -21 30 -64 50
-95z m1745 125 c0 -1 -26 -27 -57 -57 l-58 -55 55 58 c50 53 60 62 60 54z
m-138 -149 c-9 -9 -3 -22 30 -58 l43 -45 -47 44 c-37 34 -45 48 -36 58 6 7 13
13 16 13 3 0 1 -5 -6 -12z m99 -115 c13 -16 12 -17 -3 -4 -17 13 -22 21 -14
21 2 0 10 -8 17 -17z m89 -59 c0 -2 -9 0 -20 6 -11 6 -20 13 -20 16 0 2 9 0
20 -6 11 -6 20 -13 20 -16z m-680 2 c0 -2 -8 -10 -17 -17 -16 -13 -17 -12 -4
4 13 16 21 21 21 13z m363 -90 c146 -123 326 -198 547 -226 l75 -9 -80 4
c-101 5 -250 43 -346 88 -46 22 -76 32 -80 25 -4 -7 -9 -6 -13 1 -4 6 -11 9
-16 6 -5 -3 -16 2 -24 11 -13 12 -16 13 -16 1 0 -14 -46 -17 -67 -4 -6 4 -19
-5 -28 -19 -9 -15 -12 -24 -7 -20 6 3 13 2 17 -4 3 -6 -4 -14 -17 -19 -14 -6
-17 -10 -7 -10 21 -1 39 18 32 35 -7 19 12 18 28 -2 10 -13 10 -17 -2 -25 -10
-6 -10 -9 -1 -9 6 0 12 -7 12 -15 0 -8 4 -15 10 -15 5 0 7 8 3 18 -3 9 3 6 13
-8 10 -14 20 -27 23 -30 3 -3 7 -13 9 -24 2 -12 -1 -16 -9 -10 -8 4 -10 3 -5
-4 14 -23 37 -13 32 13 -4 20 -1 25 17 25 17 0 19 2 7 10 -9 5 -19 5 -26 -1
-7 -6 -15 -5 -23 5 -9 11 -5 13 26 12 31 -2 39 -7 41 -24 3 -16 -1 -20 -12
-16 -29 11 -16 -20 19 -46 27 -19 35 -32 35 -57 0 -17 5 -35 10 -38 6 -4 8
-11 5 -16 -6 -9 3 -21 39 -49 12 -9 17 -10 12 -2 -4 6 -3 12 2 12 14 0 23 -28
11 -35 -5 -4 -7 -11 -3 -16 3 -5 0 -17 -8 -27 -7 -9 23 12 67 48 44 35 89 70
100 79 l20 15 -20 -20 c-11 -11 -57 -53 -101 -92 l-81 -72 -74 19 c-93 24
-201 65 -248 93 -54 33 -121 98 -121 117 0 24 70 132 81 126 5 -4 6 2 2 11 -4
12 -3 15 5 10 7 -4 10 -2 7 6 -3 8 2 22 11 33 16 20 16 20 10 0 -6 -19 -5 -19
7 -3 8 10 16 15 19 12 4 -3 9 -1 13 5 3 7 -3 11 -16 11 -21 0 -21 1 5 21 14
11 30 18 36 14 6 -3 7 0 4 9 -3 9 -1 16 5 16 6 0 11 5 11 10 0 6 -9 10 -20 10
-23 0 -24 4 -9 32 6 11 9 22 6 24 -2 3 -25 -36 -51 -86 -26 -50 -69 -127 -97
-172 -44 -69 -49 -84 -40 -104 13 -30 101 -99 170 -134 67 -33 212 -80 249
-80 25 0 25 -2 -23 -50 -27 -27 -57 -50 -67 -50 -29 0 -199 61 -268 95 -71 36
-180 112 -248 172 l-42 38 94 82 c52 46 143 134 203 198 59 63 110 114 111
115 2 0 27 -20 55 -44z m-443 1 c0 -2 -15 -16 -32 -33 l-33 -29 29 33 c28 30
36 37 36 29z m374 -72 c-9 -14 -18 -25 -21 -25 -5 0 5 18 20 38 17 22 18 13 1
-13z m636 -178 c0 -2 -12 -14 -27 -28 l-28 -24 24 28 c23 25 31 32 31 24z
m-405 -37 c3 -5 2 -10 -4 -10 -5 0 -13 5 -16 10 -3 6 -2 10 4 10 5 0 13 -4 16
-10z m315 -44 c0 -2 -8 -10 -17 -17 -16 -13 -17 -12 -4 4 13 16 21 21 21 13z
m-1091 -209 c109 -103 232 -178 399 -244 48 -19 76 -31 62 -28 -77 17 -70 20
-200 -82 -69 -53 -170 -142 -225 -196 -115 -113 -116 -109 22 -132 72 -12 77
-14 28 -10 -266 19 -658 156 -846 296 -72 53 -181 165 -212 218 l-17 29 118
96 119 96 74 -34 c105 -48 213 -70 302 -61 83 8 207 46 263 81 22 13 43 24 48
24 5 0 34 -24 65 -53z m768 -123 c-3 -3 -12 -4 -19 -1 -8 3 -5 6 6 6 11 1 17
-2 13 -5z m161 -21 c-10 -2 -28 -2 -40 0 -13 2 -5 4 17 4 22 1 32 -1 23 -4z
m205 0 c-7 -2 -19 -2 -25 0 -7 3 -2 5 12 5 14 0 19 -2 13 -5z m-593 -143 c20
-6 21 -8 5 -8 -11 0 -29 3 -40 8 -25 11 1 11 35 0z m57 -16 c-3 -3 -12 -4 -19
-1 -8 3 -5 6 6 6 11 1 17 -2 13 -5z m603 2 c0 -3 -4 -8 -10 -11 -5 -3 -10 -1
-10 4 0 6 5 11 10 11 6 0 10 -2 10 -4z m-547 -13 c-7 -2 -19 -2 -25 0 -7 3 -2
5 12 5 14 0 19 -2 13 -5z m60 -10 c-7 -2 -19 -2 -25 0 -7 3 -2 5 12 5 14 0 19
-2 13 -5z m-1593 -285 c177 -117 380 -203 621 -263 194 -48 250 -56 489 -65
l205 -8 -225 4 c-128 2 -259 10 -305 18 -44 7 -81 13 -81 12 -23 -22 -191
-432 -181 -442 13 -13 225 -26 357 -21 163 6 281 25 425 71 43 14 81 23 83 21
6 -6 -155 -55 -253 -76 -132 -30 -401 -37 -567 -15 -513 66 -940 322 -1108
665 l-53 106 142 137 141 137 113 -112 c64 -64 148 -136 197 -169z m1698 275
c-10 -2 -26 -2 -35 0 -10 3 -2 5 17 5 19 0 27 -2 18 -5z m-590 -370 c-16 -2
-40 -2 -55 0 -16 2 -3 4 27 4 30 0 43 -2 28 -4z m415 0 c-7 -2 -21 -2 -30 0
-10 3 -4 5 12 5 17 0 24 -2 18 -5z m-145 -10 c-42 -2 -114 -2 -160 0 -46 1
-11 3 77 3 88 0 125 -2 83 -3z m199 -189 c-3 -3 -12 -4 -19 -1 -8 3 -5 6 6 6
11 1 17 -2 13 -5z m-54 -11 c-7 -2 -19 -2 -25 0 -7 3 -2 5 12 5 14 0 19 -2 13
-5z m-78 -14 c-22 -4 -58 -7 -80 -7 -39 1 -38 1 10 8 28 4 64 7 80 7 25 1 23
-1 -10 -8z m258 -24 c-3 -9 -8 -14 -10 -11 -3 3 -2 9 2 15 9 16 15 13 8 -4z
m-62 -132 c-12 -20 -14 -14 -5 12 4 9 9 14 11 11 3 -2 0 -13 -6 -23z m-37 -87
c-3 -8 -13 -17 -22 -21 -13 -5 -13 -2 3 15 21 24 26 25 19 6z m-44 -31 c0 -7
-110 -61 -140 -69 -14 -4 11 11 55 33 93 46 85 42 85 36z m-1580 -189 c175
-90 435 -172 625 -197 112 -14 340 -7 454 16 46 9 85 14 88 12 2 -3 -36 -12
-84 -22 -149 -29 -446 -31 -563 -4 -12 3 -17 -15 -24 -93 -13 -152 -13 -153
102 -224 117 -73 258 -139 330 -154 91 -20 246 30 393 125 46 30 72 44 56 30
-79 -70 -314 -175 -393 -175 -112 0 -380 138 -619 318 -109 83 -339 278 -430
366 -79 77 -85 84 -45 61 25 -14 74 -41 110 -59z m1543 -46 c-3 -12 -8 -19
-11 -16 -5 6 5 36 12 36 2 0 2 -9 -1 -20z m-63 -20 c-8 -5 -19 -10 -25 -10 -5
0 -3 5 5 10 8 5 20 10 25 10 6 0 3 -5 -5 -10z m-100 -40 c-8 -5 -19 -10 -25
-10 -5 0 -3 5 5 10 8 5 20 10 25 10 6 0 3 -5 -5 -10z m-130 -45 c-19 -7 -44
-13 -55 -13 -11 0 -2 5 20 13 53 17 80 17 35 0z m237 -107 c-3 -8 -6 -5 -6 6
-1 11 2 17 5 13 3 -3 4 -12 1 -19z m-10 -50 c-3 -8 -6 -5 -6 6 -1 11 2 17 5
13 3 -3 4 -12 1 -19z m-10 -50 c-3 -8 -6 -5 -6 6 -1 11 2 17 5 13 3 -3 4 -12
1 -19z m-10 -60 c-3 -7 -5 -2 -5 12 0 14 2 19 5 13 2 -7 2 -19 0 -25z m-26
-51 l-24 -22 19 27 c10 14 21 24 23 22 3 -3 -6 -15 -18 -27z m9 -212 c0 -2
-10 -10 -22 -16 -21 -11 -22 -11 -9 4 13 16 31 23 31 12z m-50 -30 c0 -2 -10
-9 -22 -15 -22 -11 -22 -10 -4 4 21 17 26 19 26 11z m37 -27 c-3 -7 -5 -2 -5
12 0 14 2 19 5 13 2 -7 2 -19 0 -25z m-111 -16 c-3 -5 -23 -17 -46 -27 -22
-10 -40 -22 -40 -26 0 -5 -7 -6 -15 -3 -10 4 4 16 42 34 67 33 66 32 59 22z
m-16 -98 c0 -2 -13 2 -30 11 -16 9 -30 18 -30 21 0 2 14 -2 30 -11 17 -9 30
-18 30 -21z m117 -26 c-2 -13 -4 -5 -4 17 -1 22 1 32 4 23 2 -10 2 -28 0 -40z
m-47 -14 c0 -2 -13 2 -30 11 -16 9 -30 18 -30 21 0 2 14 -2 30 -11 17 -9 30
-18 30 -21z m54 -30 c5 -14 4 -15 -9 -4 -17 14 -19 20 -6 20 5 0 12 -7 15 -16z"/>
<path d="M6760 7927 c32 -19 316 -117 338 -117 9 0 -60 26 -153 59 -94 32
-179 61 -190 65 -12 4 -10 2 5 -7z"/>
<path d="M5114 4407 c29 -27 29 -27 6 -27 -13 0 -20 -3 -17 -7 4 -3 2 -12 -4
-20 -9 -10 -8 -13 5 -13 9 0 16 6 16 14 0 24 23 24 60 -1 19 -12 39 -23 45
-23 5 0 -14 17 -44 38 -88 61 -97 66 -67 39z"/>
</g>
</svg>
